<mxfile host="app.diagrams.net" modified="2021-12-16T09:08:40.228Z" agent="5.0 (X11; Linux x86_64) AppleWebKit/537.36 (KHTML, like Gecko) Chrome/93.0.4577.63 Safari/537.36" etag="O3EfPEruo1JpKe6pPK-o" version="15.9.6" type="github">
  <diagram id="R2lEEEUBdFMjLlhIrx00" name="Page-1">
    <mxGraphModel dx="592" dy="1145" grid="1" gridSize="10" guides="1" tooltips="1" connect="1" arrows="1" fold="1" page="1" pageScale="1" pageWidth="850" pageHeight="1100" math="0" shadow="0" extFonts="Permanent Marker^https://fonts.googleapis.com/css?family=Permanent+Marker">
      <root>
        <mxCell id="0" />
        <mxCell id="1" parent="0" />
        <mxCell id="WdFm82vNa74Ln5VgWXqi-16" style="edgeStyle=orthogonalEdgeStyle;rounded=0;orthogonalLoop=1;jettySize=auto;html=1;entryX=0;entryY=0.5;entryDx=0;entryDy=0;endArrow=none;endFill=0;" edge="1" parent="1" source="WdFm82vNa74Ln5VgWXqi-1" target="WdFm82vNa74Ln5VgWXqi-15">
          <mxGeometry relative="1" as="geometry" />
        </mxCell>
        <mxCell id="WdFm82vNa74Ln5VgWXqi-1" value="User" style="rounded=0;whiteSpace=wrap;html=1;" vertex="1" parent="1">
          <mxGeometry x="150" y="580" width="120" height="60" as="geometry" />
        </mxCell>
        <mxCell id="WdFm82vNa74Ln5VgWXqi-3" style="edgeStyle=orthogonalEdgeStyle;rounded=0;orthogonalLoop=1;jettySize=auto;html=1;entryX=0;entryY=0;entryDx=0;entryDy=0;endArrow=none;endFill=0;" edge="1" parent="1" source="WdFm82vNa74Ln5VgWXqi-2" target="WdFm82vNa74Ln5VgWXqi-1">
          <mxGeometry relative="1" as="geometry" />
        </mxCell>
        <mxCell id="WdFm82vNa74Ln5VgWXqi-2" value="&lt;u&gt;Username&lt;/u&gt;" style="ellipse;whiteSpace=wrap;html=1;" vertex="1" parent="1">
          <mxGeometry x="40" y="490" width="90" height="50" as="geometry" />
        </mxCell>
        <mxCell id="WdFm82vNa74Ln5VgWXqi-13" style="edgeStyle=orthogonalEdgeStyle;rounded=0;orthogonalLoop=1;jettySize=auto;html=1;endArrow=none;endFill=0;" edge="1" parent="1" source="WdFm82vNa74Ln5VgWXqi-5" target="WdFm82vNa74Ln5VgWXqi-1">
          <mxGeometry relative="1" as="geometry" />
        </mxCell>
        <mxCell id="WdFm82vNa74Ln5VgWXqi-5" value="Email" style="ellipse;whiteSpace=wrap;html=1;" vertex="1" parent="1">
          <mxGeometry x="180" y="490" width="90" height="50" as="geometry" />
        </mxCell>
        <mxCell id="WdFm82vNa74Ln5VgWXqi-14" style="edgeStyle=orthogonalEdgeStyle;rounded=0;orthogonalLoop=1;jettySize=auto;html=1;entryX=0.25;entryY=1;entryDx=0;entryDy=0;endArrow=none;endFill=0;" edge="1" parent="1" source="WdFm82vNa74Ln5VgWXqi-6" target="WdFm82vNa74Ln5VgWXqi-1">
          <mxGeometry relative="1" as="geometry" />
        </mxCell>
        <mxCell id="WdFm82vNa74Ln5VgWXqi-6" value="Join_Date" style="ellipse;whiteSpace=wrap;html=1;" vertex="1" parent="1">
          <mxGeometry x="30" y="670" width="90" height="50" as="geometry" />
        </mxCell>
        <mxCell id="WdFm82vNa74Ln5VgWXqi-11" style="edgeStyle=orthogonalEdgeStyle;rounded=0;orthogonalLoop=1;jettySize=auto;html=1;entryX=0;entryY=0.5;entryDx=0;entryDy=0;endArrow=none;endFill=0;" edge="1" parent="1" source="WdFm82vNa74Ln5VgWXqi-10" target="WdFm82vNa74Ln5VgWXqi-1">
          <mxGeometry relative="1" as="geometry" />
        </mxCell>
        <mxCell id="WdFm82vNa74Ln5VgWXqi-10" value="bio" style="ellipse;whiteSpace=wrap;html=1;" vertex="1" parent="1">
          <mxGeometry x="30" y="570" width="90" height="50" as="geometry" />
        </mxCell>
        <mxCell id="WdFm82vNa74Ln5VgWXqi-18" value="" style="edgeStyle=orthogonalEdgeStyle;rounded=0;orthogonalLoop=1;jettySize=auto;html=1;strokeColor=default;endArrow=none;endFill=0;" edge="1" parent="1" source="WdFm82vNa74Ln5VgWXqi-15" target="WdFm82vNa74Ln5VgWXqi-17">
          <mxGeometry relative="1" as="geometry" />
        </mxCell>
        <mxCell id="WdFm82vNa74Ln5VgWXqi-15" value="Writes" style="rhombus;whiteSpace=wrap;html=1;" vertex="1" parent="1">
          <mxGeometry x="300" y="570" width="80" height="80" as="geometry" />
        </mxCell>
        <mxCell id="WdFm82vNa74Ln5VgWXqi-20" value="" style="edgeStyle=orthogonalEdgeStyle;rounded=0;orthogonalLoop=1;jettySize=auto;html=1;endArrow=none;endFill=0;" edge="1" parent="1" source="WdFm82vNa74Ln5VgWXqi-17" target="WdFm82vNa74Ln5VgWXqi-19">
          <mxGeometry relative="1" as="geometry" />
        </mxCell>
        <mxCell id="WdFm82vNa74Ln5VgWXqi-22" value="" style="edgeStyle=orthogonalEdgeStyle;rounded=0;orthogonalLoop=1;jettySize=auto;html=1;endArrow=none;endFill=0;" edge="1" parent="1" source="WdFm82vNa74Ln5VgWXqi-17" target="WdFm82vNa74Ln5VgWXqi-21">
          <mxGeometry relative="1" as="geometry" />
        </mxCell>
        <mxCell id="WdFm82vNa74Ln5VgWXqi-25" style="edgeStyle=orthogonalEdgeStyle;rounded=0;orthogonalLoop=1;jettySize=auto;html=1;entryX=0;entryY=0.5;entryDx=0;entryDy=0;endArrow=none;endFill=0;" edge="1" parent="1" source="WdFm82vNa74Ln5VgWXqi-17" target="WdFm82vNa74Ln5VgWXqi-24">
          <mxGeometry relative="1" as="geometry" />
        </mxCell>
        <mxCell id="WdFm82vNa74Ln5VgWXqi-42" value="" style="edgeStyle=orthogonalEdgeStyle;orthogonalLoop=1;jettySize=auto;html=1;endArrow=none;endFill=0;strokeColor=default;curved=1;" edge="1" parent="1" source="WdFm82vNa74Ln5VgWXqi-17" target="WdFm82vNa74Ln5VgWXqi-41">
          <mxGeometry relative="1" as="geometry" />
        </mxCell>
        <mxCell id="WdFm82vNa74Ln5VgWXqi-17" value="Posts" style="whiteSpace=wrap;html=1;" vertex="1" parent="1">
          <mxGeometry x="535" y="580" width="120" height="60" as="geometry" />
        </mxCell>
        <mxCell id="WdFm82vNa74Ln5VgWXqi-19" value="&lt;u&gt;post_id&lt;/u&gt;" style="ellipse;whiteSpace=wrap;html=1;" vertex="1" parent="1">
          <mxGeometry x="557.5" y="497.5" width="75" height="35" as="geometry" />
        </mxCell>
        <mxCell id="WdFm82vNa74Ln5VgWXqi-21" value="title" style="ellipse;whiteSpace=wrap;html=1;" vertex="1" parent="1">
          <mxGeometry x="655" y="500" width="85" height="40" as="geometry" />
        </mxCell>
        <mxCell id="WdFm82vNa74Ln5VgWXqi-24" value="content" style="ellipse;whiteSpace=wrap;html=1;" vertex="1" parent="1">
          <mxGeometry x="740" y="550" width="80" height="40" as="geometry" />
        </mxCell>
        <mxCell id="WdFm82vNa74Ln5VgWXqi-27" style="edgeStyle=orthogonalEdgeStyle;rounded=0;orthogonalLoop=1;jettySize=auto;html=1;entryX=0.25;entryY=0;entryDx=0;entryDy=0;endArrow=none;endFill=0;" edge="1" parent="1" source="WdFm82vNa74Ln5VgWXqi-26" target="WdFm82vNa74Ln5VgWXqi-17">
          <mxGeometry relative="1" as="geometry" />
        </mxCell>
        <mxCell id="WdFm82vNa74Ln5VgWXqi-26" value="post_date" style="ellipse;whiteSpace=wrap;html=1;" vertex="1" parent="1">
          <mxGeometry x="430" y="510" width="100" height="50" as="geometry" />
        </mxCell>
        <mxCell id="WdFm82vNa74Ln5VgWXqi-32" style="edgeStyle=orthogonalEdgeStyle;rounded=0;orthogonalLoop=1;jettySize=auto;html=1;endArrow=none;endFill=0;strokeColor=default;entryX=0.5;entryY=0;entryDx=0;entryDy=0;" edge="1" parent="1" source="WdFm82vNa74Ln5VgWXqi-30" target="WdFm82vNa74Ln5VgWXqi-33">
          <mxGeometry relative="1" as="geometry">
            <mxPoint x="530" y="740" as="targetPoint" />
          </mxGeometry>
        </mxCell>
        <mxCell id="WdFm82vNa74Ln5VgWXqi-38" style="edgeStyle=orthogonalEdgeStyle;rounded=0;orthogonalLoop=1;jettySize=auto;html=1;entryX=0.5;entryY=1;entryDx=0;entryDy=0;endArrow=none;endFill=0;strokeColor=default;" edge="1" parent="1" source="WdFm82vNa74Ln5VgWXqi-30" target="WdFm82vNa74Ln5VgWXqi-1">
          <mxGeometry relative="1" as="geometry" />
        </mxCell>
        <mxCell id="WdFm82vNa74Ln5VgWXqi-30" value="Writes" style="rhombus;whiteSpace=wrap;html=1;" vertex="1" parent="1">
          <mxGeometry x="170" y="700" width="75" height="70" as="geometry" />
        </mxCell>
        <mxCell id="WdFm82vNa74Ln5VgWXqi-36" value="" style="edgeStyle=orthogonalEdgeStyle;rounded=0;orthogonalLoop=1;jettySize=auto;html=1;endArrow=none;endFill=0;strokeColor=default;" edge="1" parent="1" source="WdFm82vNa74Ln5VgWXqi-33" target="WdFm82vNa74Ln5VgWXqi-35">
          <mxGeometry relative="1" as="geometry" />
        </mxCell>
        <mxCell id="WdFm82vNa74Ln5VgWXqi-47" value="" style="edgeStyle=orthogonalEdgeStyle;shape=connector;curved=1;rounded=1;orthogonalLoop=1;jettySize=auto;html=1;labelBackgroundColor=default;fontFamily=Helvetica;fontSize=11;fontColor=default;endArrow=none;endFill=0;strokeColor=default;" edge="1" parent="1" source="WdFm82vNa74Ln5VgWXqi-33" target="WdFm82vNa74Ln5VgWXqi-46">
          <mxGeometry relative="1" as="geometry" />
        </mxCell>
        <mxCell id="WdFm82vNa74Ln5VgWXqi-33" value="Comments" style="rounded=0;whiteSpace=wrap;html=1;" vertex="1" parent="1">
          <mxGeometry x="340" y="780" width="120" height="60" as="geometry" />
        </mxCell>
        <mxCell id="WdFm82vNa74Ln5VgWXqi-35" value="&lt;u&gt;comment_id&lt;/u&gt;" style="ellipse;whiteSpace=wrap;html=1;rounded=0;" vertex="1" parent="1">
          <mxGeometry x="330" y="920" width="80" height="40" as="geometry" />
        </mxCell>
        <mxCell id="WdFm82vNa74Ln5VgWXqi-48" style="edgeStyle=orthogonalEdgeStyle;shape=connector;curved=1;rounded=1;orthogonalLoop=1;jettySize=auto;html=1;entryX=0.75;entryY=1;entryDx=0;entryDy=0;labelBackgroundColor=default;fontFamily=Helvetica;fontSize=11;fontColor=default;endArrow=none;endFill=0;strokeColor=default;" edge="1" parent="1" source="WdFm82vNa74Ln5VgWXqi-40" target="WdFm82vNa74Ln5VgWXqi-33">
          <mxGeometry relative="1" as="geometry" />
        </mxCell>
        <mxCell id="WdFm82vNa74Ln5VgWXqi-40" value="post_id" style="ellipse;whiteSpace=wrap;html=1;" vertex="1" parent="1">
          <mxGeometry x="500" y="930" width="80" height="50" as="geometry" />
        </mxCell>
        <mxCell id="WdFm82vNa74Ln5VgWXqi-43" style="edgeStyle=orthogonalEdgeStyle;curved=1;orthogonalLoop=1;jettySize=auto;html=1;entryX=1;entryY=0.5;entryDx=0;entryDy=0;endArrow=none;endFill=0;strokeColor=default;" edge="1" parent="1" source="WdFm82vNa74Ln5VgWXqi-41" target="WdFm82vNa74Ln5VgWXqi-33">
          <mxGeometry relative="1" as="geometry" />
        </mxCell>
        <mxCell id="WdFm82vNa74Ln5VgWXqi-41" value="Contain" style="rhombus;whiteSpace=wrap;html=1;" vertex="1" parent="1">
          <mxGeometry x="520" y="740" width="80" height="80" as="geometry" />
        </mxCell>
        <mxCell id="WdFm82vNa74Ln5VgWXqi-49" style="edgeStyle=orthogonalEdgeStyle;shape=connector;curved=1;rounded=1;orthogonalLoop=1;jettySize=auto;html=1;entryX=0;entryY=0.25;entryDx=0;entryDy=0;labelBackgroundColor=default;fontFamily=Helvetica;fontSize=11;fontColor=default;endArrow=none;endFill=0;strokeColor=default;" edge="1" parent="1" source="WdFm82vNa74Ln5VgWXqi-45" target="WdFm82vNa74Ln5VgWXqi-33">
          <mxGeometry relative="1" as="geometry" />
        </mxCell>
        <mxCell id="WdFm82vNa74Ln5VgWXqi-45" value="comment_date" style="ellipse;whiteSpace=wrap;html=1;fontFamily=Helvetica;fontSize=11;fontColor=default;" vertex="1" parent="1">
          <mxGeometry x="170" y="820" width="85" height="40" as="geometry" />
        </mxCell>
        <mxCell id="WdFm82vNa74Ln5VgWXqi-46" value="content" style="ellipse;whiteSpace=wrap;html=1;rounded=0;" vertex="1" parent="1">
          <mxGeometry x="230" y="900" width="100" height="60" as="geometry" />
        </mxCell>
      </root>
    </mxGraphModel>
  </diagram>
</mxfile>
